<?xml version="1.0" encoding="iso-8859-1"?>
<!-- Generator: Adobe Illustrator 19.0.0, SVG Export Plug-In . SVG Version: 6.00 Build 0)  -->
<svg version="1.1" id="Layer_1" xmlns="http://www.w3.org/2000/svg" xmlns:xlink="http://www.w3.org/1999/xlink" x="0px" y="0px"
	 viewBox="0 0 512 512" style="enable-background:new 0 0 512 512;" xml:space="preserve">
<g>
	<g>
		<path d="M503.153,288.622c0-12.709-5.48-24.237-14.253-32.253c13.736-7.368,23.1-21.872,23.1-38.521
			c0-24.085-19.595-43.68-43.68-43.68H343.914V93.996c0-32.341-9.31-55.665-27.67-69.327c-29.196-21.722-69.76-9.905-71.473-9.39
			c-3.508,1.052-5.911,4.281-5.911,7.943V135.36l-81.323,103.501c-2.541-11.683-12.957-20.46-25.39-20.46H25.987
			C11.658,218.402,0,230.059,0,244.389v26.54c0,4.58,3.712,8.294,8.294,8.294c4.581,0,8.294-3.713,8.294-8.294v-26.54
			c0-5.183,4.217-9.4,9.4-9.4h106.16c5.183,0,9.4,4.217,9.4,9.4v230.013c0,5.183-4.217,9.4-9.4,9.4H25.987
			c-5.183,0-9.4-4.216-9.4-9.4V306.315c0-4.58-3.712-8.294-8.294-8.294c-4.581,0-8.294,3.713-8.294,8.294v168.086
			c0,14.329,11.658,25.987,25.987,25.987h106.16c14.329,0,25.987-11.658,25.987-25.987v-21.967l41.077,20.539
			c1.152,0.576,2.422,0.876,3.709,0.876h159.24c4.581,0,8.294-3.713,8.294-8.294c0-4.58-3.712-8.294-8.294-8.294H204.878
			l-46.745-23.372V264.951l95.541-121.597c1.148-1.461,1.773-3.266,1.773-5.124V29.812c10.761-2.035,33.993-4.409,50.894,8.164
			c13.925,10.361,20.985,29.208,20.985,56.019v88.467c0,4.58,3.712,8.294,8.294,8.294h132.7c14.94,0,27.093,12.154,27.093,27.093
			c0,14.939-12.153,27.093-27.093,27.093c-1.663,0-70.773,0-70.773,0c-4.581,0-8.294,3.713-8.294,8.294
			c0,4.58,3.712,8.294,8.294,8.294c0,0,63.33,0.041,63.622,0.06c14.242,0.876,25.398,12.751,25.398,27.033
			c0,14.939-12.153,27.093-27.093,27.093c-1.087,0-61.927,0-61.927,0c-4.581,0-8.294,3.713-8.294,8.294
			c0,4.58,3.712,8.294,8.294,8.294h55.366c0.355,0.093,0.717,0.172,1.09,0.219c13.521,1.678,23.717,13.23,23.717,26.874
			c0,14.939-12.153,27.093-27.093,27.093c-0.571,0-53.08,0-53.08,0c-4.581,0-8.294,3.713-8.294,8.294
			c0,4.58,3.712,8.294,8.294,8.294h47.671c0.51,0.208,1.045,0.372,1.606,0.477c12.776,2.403,22.049,13.596,22.049,26.616
			c0,14.939-12.153,27.093-27.093,27.093h-44.233c-4.581,0-8.294,3.713-8.294,8.294c0,4.58,3.712,8.294,8.294,8.294h44.233
			c24.085,0,43.68-19.595,43.68-43.68c0-12.637-5.422-24.209-14.233-32.263c13.726-7.371,23.08-21.869,23.08-38.511
			c0-12.67-5.454-24.219-14.246-32.256C493.795,319.77,503.153,305.269,503.153,288.622z"/>
	</g>
</g>
<g>
	<g>
		<path d="M96.76,413.028c-14.329,0-25.987,11.658-25.987,25.987c0,14.329,11.658,25.987,25.987,25.987s25.987-11.658,25.987-25.987
			C122.747,424.686,111.09,413.028,96.76,413.028z M96.76,448.415c-5.183,0-9.4-4.216-9.4-9.4s4.216-9.4,9.4-9.4s9.4,4.217,9.4,9.4
			S101.943,448.415,96.76,448.415z"/>
	</g>
</g>
<g>
</g>
<g>
</g>
<g>
</g>
<g>
</g>
<g>
</g>
<g>
</g>
<g>
</g>
<g>
</g>
<g>
</g>
<g>
</g>
<g>
</g>
<g>
</g>
<g>
</g>
<g>
</g>
<g>
</g>
</svg>
