<?xml version="1.0" encoding="utf-8"?>
<!-- Generator: Adobe Illustrator 24.0.1, SVG Export Plug-In . SVG Version: 6.00 Build 0)  -->
<svg version="1.1" id="Capa_1" xmlns="http://www.w3.org/2000/svg" xmlns:xlink="http://www.w3.org/1999/xlink" x="0px" y="0px"
	 viewBox="0 0 47.5 41.2" style="enable-background:new 0 0 47.5 41.2;" xml:space="preserve">
<style type="text/css">
	.st0{fill:#FFA6BB;}
</style>
<g>
	<path d="M1.2,1.8h13v6.1c1.4-2.2,3.1-3.9,5.1-5.1c2-1.2,4.4-1.8,7.1-1.8c0.3,0,0.7,0,1.1,0c0.4,0,0.9,0,1.4,0.1v12.5
		c-1.7-0.9-3.6-1.3-5.6-1.3c-3,0-5.3,0.9-6.8,2.7c-1.5,1.8-2.3,4.4-2.3,7.9v15.8h-13V1.8z"/>
	<path class="st0" d="M29.5,31.8c0-1.1,0.2-2.2,0.6-3.3c0.4-1,1-1.9,1.8-2.7s1.7-1.4,2.7-1.8c1-0.4,2.1-0.6,3.3-0.6
		c1.2,0,2.2,0.2,3.3,0.6c1,0.4,1.9,1,2.7,1.8c0.8,0.8,1.4,1.7,1.8,2.7s0.7,2.1,0.7,3.3c0,1.2-0.2,2.2-0.7,3.3c-0.4,1-1,1.9-1.8,2.7
		s-1.7,1.4-2.7,1.8c-1,0.4-2.1,0.7-3.3,0.7c-1.2,0-2.2-0.2-3.3-0.7c-1-0.4-1.9-1-2.7-1.8s-1.4-1.7-1.8-2.7
		C29.7,34.1,29.5,33,29.5,31.8z"/>
</g>
</svg>
