<?xml version="1.0" encoding="utf-8"?>
<!-- Generator: Adobe Illustrator 24.0.1, SVG Export Plug-In . SVG Version: 6.00 Build 0)  -->
<svg version="1.1" id="Capa_1" xmlns="http://www.w3.org/2000/svg" xmlns:xlink="http://www.w3.org/1999/xlink" x="0px" y="0px"
	 viewBox="0 0 47.53 41.25" style="enable-background:new 0 0 47.53 41.25;" xml:space="preserve">
<g>
	<path d="M1.16,1.8h13.03v6.05c1.39-2.21,3.1-3.9,5.11-5.08C21.32,1.59,23.67,1,26.36,1c0.33,0,0.71,0,1.12,0
		c0.41,0,0.88,0.05,1.4,0.14V13.6c-1.73-0.86-3.6-1.3-5.62-1.3c-3.02,0-5.29,0.9-6.8,2.7c-1.51,1.8-2.27,4.43-2.27,7.88v15.84H1.16
		V1.8z"/>
	<path d="M29.52,31.82c0-1.15,0.22-2.24,0.65-3.28c0.43-1.03,1.03-1.93,1.8-2.7c0.77-0.77,1.67-1.37,2.7-1.8
		c1.03-0.43,2.12-0.65,3.28-0.65c1.15,0,2.24,0.22,3.28,0.65c1.03,0.43,1.93,1.03,2.7,1.8c0.77,0.77,1.37,1.67,1.8,2.7
		c0.43,1.03,0.65,2.12,0.65,3.28c0,1.15-0.22,2.24-0.65,3.28c-0.43,1.03-1.03,1.93-1.8,2.7c-0.77,0.77-1.67,1.37-2.7,1.8
		c-1.03,0.43-2.12,0.65-3.28,0.65c-1.15,0-2.24-0.22-3.28-0.65c-1.03-0.43-1.93-1.03-2.7-1.8c-0.77-0.77-1.37-1.67-1.8-2.7
		C29.74,34.06,29.52,32.97,29.52,31.82z"/>
</g>
</svg>
