<?xml version="1.0" encoding="utf-8"?>
<!-- Generator: Adobe Illustrator 24.0.1, SVG Export Plug-In . SVG Version: 6.00 Build 0)  -->
<svg version="1.1" id="Capa_1" xmlns="http://www.w3.org/2000/svg" xmlns:xlink="http://www.w3.org/1999/xlink" x="0px" y="0px"
	 viewBox="0 0 319.9 512" style="enable-background:new 0 0 319.9 512;" xml:space="preserve">
<g>
	<path d="M134.9,200.4c-1-4.1-5.2-6.5-9.3-5.5l-34.5,8.8c-4.1,1-6.5,5.2-5.5,9.3c0.9,3.4,4,5.7,7.4,5.7c0.6,0,1.3-0.1,1.9-0.2
		l34.5-8.8C133.5,208.6,136,204.4,134.9,200.4z"/>
	<path d="M190.4,209.6l34.5,8.8c0.6,0.2,1.3,0.2,1.9,0.2c3.4,0,6.5-2.3,7.4-5.7c1-4.1-1.4-8.2-5.5-9.3l-34.5-8.8
		c-4.1-1-8.2,1.4-9.3,5.5S186.4,208.6,190.4,209.6z"/>
	<path d="M107,235.4v8.5c0,4.2,3.4,7.6,7.6,7.6c4.2,0,7.6-3.4,7.6-7.6v-8.5c0-4.2-3.4-7.6-7.6-7.6C110.4,227.8,107,231.2,107,235.4z
		"/>
	<path d="M205.3,227.8c-4.2,0-7.6,3.4-7.6,7.6v8.5c0,4.2,3.4,7.6,7.6,7.6s7.6-3.4,7.6-7.6v-8.5C212.9,231.2,209.5,227.8,205.3,227.8
		z"/>
	<path d="M159.9,282.2c6.4,0,12.7-2.4,17.6-7.3c3-3,3-7.8,0-10.8c-3-3-7.8-3-10.8,0c-3.7,3.7-9.8,3.7-13.6,0c-3-3-7.8-3-10.8,0
		s-3,7.8,0,10.8C147.2,279.8,153.6,282.2,159.9,282.2z"/>
	<path d="M152.5,313.7c-26-2.9-32-20.1-32.3-21c-1.2-4-5.5-6.2-9.5-5c-4,1.2-6.3,5.5-5.1,9.5c0.3,1.1,8.7,27.7,45.2,31.7
		c0.3,0,0.6,0,0.8,0c3.8,0,7.1-2.9,7.6-6.8C159.7,317.9,156.7,314.2,152.5,313.7z"/>
	<path d="M247.9,345.3c8.4-8.4,15.5-17.8,21.1-28c2.3,0.7,4.7,1,7.2,1c23.1,0,43.7-29,43.7-51.8c0-12.6-4.5-23.5-12-30.9V133.7
		c0-23.2-6.9-45.6-20-64.8c-2.4-3.5-7.1-4.4-10.6-2c-3.5,2.4-4.4,7.1-2,10.6c11.4,16.6,17.4,36.1,17.4,56.2v92.9
		c-2.6-0.8-5.4-1.3-8.3-1.5v-50c0-4.2-3.4-7.6-7.6-7.6s-7.6,3.4-7.6,7.6v8.2c-29.7-2-137.2-13.1-192.2-73c-0.6-0.7-1.4-1.2-2.2-1.7
		c-3.1-1.6-6.9-0.8-9.2,1.8c-19.4,22.5-30.1,51.4-30.1,81.2v33.4c-2.2,0.2-4.4,0.5-6.4,1v-125c0-8.1,3.8-15.6,10.3-20.4
		c6.6-4.8,14.8-6.2,22.6-3.8c4,1.2,8.2-1,9.5-5c6.8-21.6,21.8-38.9,42.2-48.7c20.4-9.8,43.3-10.6,64.4-2.4l51.2,20
		c9.4,3.7,18.2,8.7,26,15c3.3,2.6,8.1,2.1,10.7-1.2s2.1-8.1-1.2-10.7c-9.1-7.3-19.2-13.1-30-17.3l-51.2-20
		c-25.1-9.8-52.2-8.8-76.5,2.8c-22.2,10.6-39,28.7-47.8,51.3c-10.2-1.2-20.4,1.4-28.9,7.7c-10.5,7.7-16.5,19.7-16.5,32.7v132.8
		C5.2,241.3,0,252.9,0,266.5c0,22.8,20.6,51.8,43.7,51.8c2.5,0,4.9-0.4,7.2-1c14.7,26.6,38.9,47.3,67.9,57.5v28.1l-37.4,21.7
		c-3.6,2.1-4.9,6.8-2.8,10.4c1.4,2.4,4,3.8,6.6,3.8c1.3,0,2.6-0.3,3.8-1l7.7-4.5l8.7,43.5c0.5,2.6,2.3,4.7,4.7,5.6
		c0.9,0.3,1.8,0.5,2.8,0.5c1.6,0,3.2-0.5,4.5-1.5l34.9-25.6v48.6c0,4.2,3.4,7.6,7.6,7.6s7.6-3.4,7.6-7.6v-48.6l34.9,25.6
		c2.1,1.5,4.8,1.9,7.3,1c2.4-0.9,4.2-3.1,4.7-5.6l8.7-43.5l44.3,25.7l12.4,47.4c0.9,3.4,4,5.7,7.4,5.7c0.6,0,1.3-0.1,1.9-0.2
		c4.1-1.1,6.5-5.2,5.4-9.3L281.3,452c-0.5-2-1.8-3.6-3.5-4.7L201,402.8v-28C218.5,368.7,234.5,358.7,247.9,345.3z M304.6,266.5
		c0,15.1-14.7,36.6-28.5,36.6c-0.2,0-0.3,0-0.5,0c2.2-5.6,4-11.4,5.4-17.3c1.7-6,6.2-15.7,11.1-15.7c4.2,0,7.6-3.4,7.6-7.6
		s-3.4-7.6-7.6-7.6c-2.9,0-5.5,0.6-7.8,1.6v-16C294.6,241.8,304.6,250.1,304.6,266.5z M43.7,303.1c-13.7,0-28.5-21.5-28.5-36.6
		c0-16.4,10-24.7,20.3-26v16c-2.3-1-4.9-1.6-7.8-1.6c-4.2,0-7.6,3.4-7.6,7.6s3.4,7.6,7.6,7.6c5.2,0,10,11.1,11.4,17
		c0,0.1,0,0.1,0.1,0.2c1.3,5.4,3,10.7,5.1,15.8C44,303.1,43.9,303.1,43.7,303.1z M50.7,257.3v-65.5c0-23.4,7.5-46.1,21.2-64.7
		c28.8,28.1,71,48.7,125.5,61.2c32,7.3,59.1,9.7,71.7,10.5v58.6c0,29.2-11.4,56.6-32,77.2c-20.6,20.6-48.1,32-77.2,32
		C99.7,366.5,50.7,317.5,50.7,257.3z M110.6,425.2l10-5.8c3.4,11,11.3,20,21.5,24.9L118,462L110.6,425.2z M201.8,462l-24.2-17.7
		c10.2-4.9,18.1-13.9,21.5-24.9l10,5.8L201.8,462z M185.8,406.8c0,0.3,0,0.5,0,0.8c-0.2,14.1-11.7,25.6-25.9,25.6
		c-14.3,0-25.9-11.6-25.9-25.9V379c8.3,1.8,17,2.7,25.9,2.7c8.8,0,17.5-0.9,25.9-2.7V406.8z"/>
	<path d="M59,437.5l-16.9,9.8c-1.8,1-3,2.7-3.5,4.7l-13.2,50.5c-1.1,4.1,1.4,8.2,5.4,9.3c0.6,0.2,1.3,0.2,1.9,0.2
		c3.4,0,6.5-2.3,7.4-5.7l12.4-47.4l14.1-8.2c3.6-2.1,4.9-6.8,2.8-10.4C67.3,436.7,62.6,435.4,59,437.5z"/>
</g>
</svg>
