<?xml version="1.0" encoding="utf-8"?>
<!-- Generator: Adobe Illustrator 24.0.1, SVG Export Plug-In . SVG Version: 6.00 Build 0)  -->
<svg version="1.1" id="Capa_1" xmlns="http://www.w3.org/2000/svg" xmlns:xlink="http://www.w3.org/1999/xlink" x="0px" y="0px"
	 viewBox="0 0 511 452.8" style="enable-background:new 0 0 511 452.8;" xml:space="preserve">
<g>
	<path d="M217,315.5v-8.4c0-4.2-3.4-7.6-7.6-7.6c-4.2,0-7.6,3.4-7.6,7.6v8.4c0,4.2,3.4,7.6,7.6,7.6C213.6,323.1,217,319.7,217,315.5
		z"/>
	<path d="M299.7,299.5c-4.2,0-7.6,3.4-7.6,7.6v8.4c0,4.2,3.4,7.6,7.6,7.6c4.2,0,7.6-3.4,7.6-7.6v-8.4
		C307.3,302.9,303.9,299.5,299.7,299.5z"/>
	<path d="M254.6,348.6c6.3,0,12.7-2.4,17.5-7.2c3-3,3-7.8,0-10.7c-3-3-7.8-3-10.7,0c-3.7,3.7-9.8,3.7-13.5,0c-3-3-7.8-3-10.7,0
		c-3,3-3,7.8,0,10.7C241.9,346.2,248.2,348.6,254.6,348.6z"/>
	<path d="M296,357.6h-82.9c-4.2,0-7.6,3.4-7.6,7.6c0,27,22,49,49,49s49-22,49-49C303.6,361,300.2,357.6,296,357.6z M254.6,399.1
		c-16.1,0-29.6-11.3-33-26.3h66C284.1,387.8,270.7,399.1,254.6,399.1z"/>
	<path d="M217.6,282.4c1.5,1.5,3.4,2.2,5.4,2.2c1.9,0,3.9-0.7,5.4-2.2c3-3,3-7.8,0-10.7c-10.4-10.4-27.4-10.4-37.9,0
		c-3,3-3,7.8,0,10.7c3,3,7.8,3,10.7,0C205.7,277.9,213.1,277.9,217.6,282.4z"/>
	<path d="M299.7,263.8c-7.2,0-13.9,2.8-18.9,7.8c-3,3-3,7.8,0,10.7c3,3,7.8,3,10.7,0c2.2-2.2,5.1-3.4,8.2-3.4c3.1,0,6,1.2,8.2,3.4
		c1.5,1.5,3.4,2.2,5.4,2.2c1.9,0,3.9-0.7,5.4-2.2c3-3,3-7.8,0-10.7C313.6,266.6,306.9,263.8,299.7,263.8z"/>
	<path d="M506.1,95l-66.4-25.3c-3.9-1.5-8.3,0.5-9.8,4.4c-1.5,3.9,0.5,8.3,4.4,9.8l47.8,18.2l-80.2,30.6V112c0-3.5-2.3-6.5-5.7-7.3
		c-92.1-23.6-189.4-23.6-281.5,0c-3.4,0.9-5.7,3.9-5.7,7.3v20.7l-80.2-30.6l226.6-86.4l149.6,57c3.9,1.5,8.3-0.5,9.8-4.4
		c1.5-3.9-0.5-8.3-4.4-9.8L258.2,0.5c-1.7-0.7-3.7-0.7-5.4,0L4.9,95C1.9,96.1,0,99,0,102.1c0,3.1,1.9,6,4.9,7.1L109,148.9l0,107.9
		c0,4.2,3.4,7.6,7.6,7.6c4.2,0,7.6-3.4,7.6-7.6v-42.6c6.2-1.5,12.4-2.9,18.6-4.2c-8,16.6-12.2,34.9-12.2,53.6v33.3
		c-2.2,0.2-4.3,0.5-6.4,1v-10.7c0-4.2-3.4-7.6-7.6-7.6c-4.2,0-7.6,3.4-7.6,7.6v18.5c-8.6,7.4-13.8,18.8-13.8,32.4
		c0,22.7,20.5,51.6,43.5,51.6c2.5,0,4.9-0.4,7.2-1c21.1,38.2,61.9,64.2,108.6,64.2c33.1,0,64.3-12.9,87.7-36.3
		c8.4-8.4,15.4-17.8,21-27.9c2.3,0.7,4.6,1,7.1,1c23,0,43.5-28.9,43.5-51.6c0-12.6-4.5-23.4-11.9-30.8V148.9l29.8-11.4v108.3
		C421.5,249,414,258.7,414,270c0,14,11.4,25.3,25.3,25.3c14,0,25.3-11.4,25.3-25.3c0-11.3-7.5-20.9-17.7-24.2V131.8l59.2-22.6
		c2.9-1.1,4.9-3.9,4.9-7.1C511,99,509.1,96.1,506.1,95z M378.5,296.9v-33.6c0,0,0,0,0,0v-16.2c0-4.2-3.4-7.6-7.6-7.6
		c-4.2,0-7.6,3.4-7.6,7.6v8.2c-26.1-1.7-112.2-10.5-169.9-53.4c64.5-7.3,130.1-3.1,193.3,12.4v84.2
		C384.2,297.6,381.4,297.1,378.5,296.9z M124.2,117.9c86-21.1,176.5-21.1,262.6,0v80.7c-43.1-10.3-87.2-15.4-131.3-15.4
		c-44.1,0-88.2,5.1-131.3,15.4L124.2,117.9z M138.8,374.5c-13.7,0-28.4-21.4-28.4-36.4c0-16.4,10-24.6,20.2-25.9v15.9
		c-2.3-1-4.9-1.6-7.8-1.6c-4.2,0-7.6,3.4-7.6,7.6s3.4,7.6,7.6,7.6c5.2,0,10,11,11.4,16.9c0,0,0,0.1,0,0.1c1.3,5.4,3,10.7,5.1,15.8
		C139.1,374.5,139,374.5,138.8,374.5z M331.5,405.8c-20.5,20.5-47.9,31.9-76.9,31.9c-60,0-108.8-48.8-108.8-108.8v-65.3
		c0-20.4,5.6-40.1,16.3-57.3c3.6-0.6,7.2-1.2,10.8-1.7c36.8,32.5,87.9,48.8,124.6,56.7c29.4,6.3,54.1,8.5,65.9,9.2v58.4
		C363.4,357.9,352.1,385.2,331.5,405.8z M370.4,374.5c-0.2,0-0.3,0-0.5,0c2.2-5.6,4-11.3,5.4-17.1c1.7-6.1,6.2-15.7,11.1-15.7
		c4.2,0,7.6-3.4,7.6-7.6s-3.4-7.6-7.6-7.6c-2.9,0-5.5,0.6-7.8,1.6v-15.9c10.2,1.3,20.2,9.5,20.2,25.9
		C398.7,353.1,384.1,374.5,370.4,374.5z M439.3,280.2c-5.6,0-10.2-4.6-10.2-10.2c0-5.6,4.6-10.2,10.2-10.2s10.2,4.6,10.2,10.2
		C449.5,275.6,444.9,280.2,439.3,280.2z"/>
</g>
</svg>
